<?xml version="1.0" standalone="no"?>
<svg xmlns:xlink="http://www.w3.org/1999/xlink" id="wave" style="transform:rotate(0deg); transition: 0.3s" viewBox="0 0 1440 490" version="1.1" xmlns="http://www.w3.org/2000/svg"><defs><linearGradient id="sw-gradient-0" x1="0" x2="0" y1="1" y2="0"><stop stop-color="rgba(42, 45, 48, 1)" offset="0%"/><stop stop-color="rgba(42, 45, 48, 1)" offset="100%"/></linearGradient></defs><path style="transform:translate(0, 0px); opacity:1" fill="url(#sw-gradient-0)" d="M0,147L240,196C480,245,960,343,1440,326.7C1920,310,2400,180,2880,138.8C3360,98,3840,147,4320,196C4800,245,5280,294,5760,261.3C6240,229,6720,114,7200,65.3C7680,16,8160,33,8640,73.5C9120,114,9600,180,10080,212.3C10560,245,11040,245,11520,269.5C12000,294,12480,343,12960,334.8C13440,327,13920,261,14400,228.7C14880,196,15360,196,15840,220.5C16320,245,16800,294,17280,310.3C17760,327,18240,310,18720,277.7C19200,245,19680,196,20160,147C20640,98,21120,49,21600,40.8C22080,33,22560,65,23040,81.7C23520,98,24000,98,24480,89.8C24960,82,25440,65,25920,57.2C26400,49,26880,49,27360,89.8C27840,131,28320,212,28800,245C29280,278,29760,261,30240,236.8C30720,212,31200,180,31680,187.8C32160,196,32640,245,33120,261.3C33600,278,34080,261,34320,253.2L34560,245L34560,490L34320,490C34080,490,33600,490,33120,490C32640,490,32160,490,31680,490C31200,490,30720,490,30240,490C29760,490,29280,490,28800,490C28320,490,27840,490,27360,490C26880,490,26400,490,25920,490C25440,490,24960,490,24480,490C24000,490,23520,490,23040,490C22560,490,22080,490,21600,490C21120,490,20640,490,20160,490C19680,490,19200,490,18720,490C18240,490,17760,490,17280,490C16800,490,16320,490,15840,490C15360,490,14880,490,14400,490C13920,490,13440,490,12960,490C12480,490,12000,490,11520,490C11040,490,10560,490,10080,490C9600,490,9120,490,8640,490C8160,490,7680,490,7200,490C6720,490,6240,490,5760,490C5280,490,4800,490,4320,490C3840,490,3360,490,2880,490C2400,490,1920,490,1440,490C960,490,480,490,240,490L0,490Z"/></svg>